# xmcd
#
# Track frame offsets:
#	150
#	13089
#	25704
#	44415
#	58328
#	70980
#	81299
#	93014
#	107051
#	124832
#	143404
#	159093
#
# Disc length: 2348 seconds
#
# Revision: 1
# Processed by: cddbd v1.5.2PL0 Copyright (c) Steve Scherf et al.
# Submitted via: audiograbber 1.83.01
#
DISCID=94092a0c
DTITLE=The Larch Family - All Time Favorites
DYEAR=2005
DGENRE=Gospel
TTITLE0=Damascus Road
TTITLE1=I Can, I Will
TTITLE2=Leavin' On My Mind
TTITLE3=I'll Take Jesus
TTITLE4=House Up In The Sky
TTITLE5=Stroll Over Heaven With You
TTITLE6=Wouldn't Take Nothing For My Journey Now
TTITLE7=He Calms Me
TTITLE8=Long Black Train
TTITLE9=From Heaven's Point Of View
TTITLE10=Beyond The Grave
TTITLE11=Fight On
EXTD=
EXTT0=
EXTT1=
EXTT2=
EXTT3=
EXTT4=
EXTT5=
EXTT6=
EXTT7=
EXTT8=
EXTT9=
EXTT10=
EXTT11=
PLAYORDER=
